<svg width="219" height="228" viewBox="0 0 219 228" fill="none" xmlns="http://www.w3.org/2000/svg">
<path d="M114.5 0L137.962 74.9717H213.885L152.462 121.307L175.924 196.278L114.5 149.943L53.0764 196.278L76.5381 121.307L15.1146 74.9717H91.0383L114.5 0Z" fill="white"/>
<path d="M104.5 11L127.962 85.9717H203.885L142.462 132.307L165.924 207.278L104.5 160.943L43.0764 207.278L66.5381 132.307L5.11459 85.9717H81.0383L104.5 11Z" fill="#AE8FDD"/>
<path d="M175.487 46.6942C175.318 44.7686 173.62 43.3445 171.694 43.5134L140.315 46.266C138.389 46.4349 136.965 48.1328 137.134 50.0584C137.303 51.984 139.001 53.4081 140.926 53.2392L168.819 50.7925L171.266 78.6853C171.435 80.6109 173.133 82.035 175.058 81.8661C176.984 81.6972 178.408 79.9993 178.239 78.0737L175.487 46.6942ZM68 171L70.6817 173.249L174.682 49.2491L172 47L169.318 44.7509L65.3183 168.751L68 171Z" fill="white"/>
<path d="M158.484 56.6638C158.298 54.7398 156.588 53.3305 154.664 53.5162L123.309 56.5416C121.385 56.7273 119.976 58.4375 120.162 60.3616C120.347 62.2856 122.058 63.6949 123.982 63.5092L151.852 60.82L154.542 88.6905C154.727 90.6146 156.438 92.0238 158.362 91.8382C160.286 91.6525 161.695 89.9423 161.509 88.0182L158.484 56.6638ZM52 182L54.7011 184.226L157.701 59.2257L155 57L152.299 54.7743L49.2989 179.774L52 182Z" fill="#885DC8"/>
</svg>
